<svg xmlns="http://www.w3.org/2000/svg" xmlns:svg="http://www.w3.org/2000/svg" xmlns:xlink="http://www.w3.org/1999/xlink" width="854" height="480" viewBox="0 0 854 480" id="StartPage" version="1.1" enable-background="new" style="-moz-user-select:none;-webkit-user-select:none;user-select:none">
    <defs id="Definitions">
        <linearGradient id="LinearGradient">
            <stop offset="0" id="StopOne" style="stop-color:#cccccc;stop-opacity:0" />
            <stop offset="1" id="StopTwo" style="stop-color:#b3b3b3;stop-opacity:1" />
        </linearGradient>
        <filter id="Color">
            <feColorMatrix in="SourceGraphic" type="matrix" values="0 0 0 0 0 1 0 0 0 0 0 1 0 0 0 0 0 0 1 0" id="feColorMatrix" />
        </filter>
        <radialGradient xlink:href="#LinearGradient" id="RadialGradient" cx="427" cy="240" fx="427" fy="240" r="12" gradientUnits="userSpaceOnUse" />
    </defs>
    <g id="WeLayer" transform="translate(18,-585)" style="filter:url(#Color);opacity:0">
        <g id="WGroup" count="0" transform="translate(0,-1.0953675e-5)" style="fill:#ccc">
            <path d="m198.16 791.36-11.1 42.01-10.49 0-6.97-26.95q-0.56-2.11-0.67-4.72l-0.12 0q-0.26 2.87-0.76 4.72l-7.15 26.95-10.93 0-11.04-42.01 10.34 0 5.92 27.98q0.38 1.79 0.56 4.8l0.18 0q0.12-2.26 0.85-4.92l7.62-27.86 10.14 0 6.88 28.21q0.38 1.55 0.67 4.51l0.12 0q0.12-2.31 0.62-4.69l5.8-28.04 9.55 0z" id="W" />
        </g>
        <g id="EGroup" count="1" transform="translate(14.000001,-1.0953675e-5)" style="fill:#ccc">
            <path d="m233.18 833.37-25.2 0 0-42.01 24.23 0 0 7.71-14.77 0 0 9.35 13.74 0 0 7.68-13.74 0 0 9.61 15.73 0 0 7.68z" id="E" />
        </g>
    </g>
    <g id="CreateLayer" transform="translate(0,-13)">
        <g transform="translate(0,-572.36211)" id="CGroup" count="0" style="fill:#ccc;fill-opacity:0">
            <path d="m342.17 831.87q-4.6 2.23-12.01 2.23-9.67 0-15.21-5.68-5.54-5.68-5.54-15.15 0-10.08 6.21-16.35 6.24-6.27 16.17-6.27 6.15 0 10.37 1.55l0 9.11q-4.22-2.52-9.61-2.52-5.92 0-9.55 3.72-3.63 3.72-3.63 10.08 0 6.09 3.43 9.73 3.43 3.6 9.23 3.6 5.54 0 10.14-2.7l0 8.64z" id="C" />
        </g>
        <g transform="translate(-2.2127077,-572.36211)" id="RGroup" count="1" style="fill:#ccc;fill-opacity:0">
            <path d="m406.91 833.37-10.87 0-6.53-10.81q-0.73-1.23-1.41-2.2-0.67-0.97-1.38-1.64-0.67-0.7-1.44-1.05-0.73-0.38-1.61-0.38l-2.55 0 0 16.08-9.46 0 0-42.01 15 0q15.29 0 15.29 11.43 0 2.2-0.67 4.07-0.67 1.85-1.9 3.34-1.23 1.49-2.99 2.58-1.73 1.08-3.87 1.7l0 0.12q0.94 0.29 1.82 0.97 0.88 0.64 1.7 1.52 0.82 0.88 1.55 1.9 0.76 1 1.38 1.96l7.94 12.42zm-25.78-34.92 0 11.69 4.1 0q3.05 0 4.89-1.76 1.88-1.79 1.88-4.42 0-5.51-6.59-5.51l-4.28 0z" id="R" />
        </g>
        <g transform="translate(-2.5699159,-572.36211)" id="g22" count="2" style="fill:#ccc;fill-opacity:0">
            <path d="m463.53 833.37-25.2 0 0-42.01 24.23 0 0 7.71-14.77 0 0 9.35 13.74 0 0 7.68-13.74 0 0 9.61 15.73 0 0 7.68z" id="path24" />
        </g>
        <g id="AGroup" count="3" transform="translate(-2.559601,0)" style="fill:#ccc;fill-opacity:0">
            <path d="m532.94 261.01-10.31 0-2.99-9.35-14.94 0-2.96 9.35-10.25 0 15.29-42.01 11.22 0 14.94 42.01zm-15.47-16.61-4.51-14.12q-0.5-1.58-0.7-3.78l-0.23 0q-0.15 1.85-0.73 3.66l-4.57 14.24 10.75 0z" id="A" />
        </g>
        <g id="TGroup" count="4" transform="translate(-4.2335818,0)" style="fill:#ccc;fill-opacity:0">
            <path d="m591.88 226.7-11.98 0 0 34.31-9.49 0 0-34.31-11.92 0 0-7.71 33.4 0 0 7.71z" id="T" />
        </g>
        <g id="g30" count="5" style="fill:#ccc;fill-opacity:0">
            <path d="m644.83 261.01-25.2 0 0-42.01 24.23 0 0 7.71-14.77 0 0 9.35 13.74 0 0 7.68-13.74 0 0 9.61 15.73 0 0 7.68z" id="path32" />
        </g>
    </g>
    <g id="DesignLayer" transform="translate(2-13)">
        <g id="DGroup" count="0" style="fill:#ccc;fill-opacity:0">
            <path d="m313.55 261.01 0-42.01 14.88 0q22.38 0 22.38 20.48 0 9.81-6.12 15.67-6.09 5.86-16.26 5.86l-14.88 0zm9.46-34.31 0 26.63 4.69 0q6.15 0 9.64-3.69 3.52-3.69 3.52-10.05 0-6.01-3.49-9.43-3.46-3.46-9.73-3.46l-4.63 0z" id="D" />
        </g>
        <g id="EGroup" count="1" transform="translate(1.1855469,0)" style="fill:#ccc;fill-opacity:0">
            <path d="m404.37 261.01-25.2 0 0-42.01 24.23 0 0 7.71-14.77 0 0 9.35 13.74 0 0 7.68-13.74 0 0 9.61 15.73 0 0 7.68z" id="E" />
        </g>
        <g id="SGroup" count="2" transform="translate(-0.42184451,0)" style="fill:#ccc;fill-opacity:0">
            <path d="m439.91 259.39 0-9.37q2.55 2.14 5.54 3.22 2.99 1.05 6.04 1.05 1.79 0 3.11-0.32 1.35-0.32 2.23-0.88 0.91-0.59 1.35-1.35 0.44-0.79 0.44-1.7 0-1.23-0.7-2.2-0.7-0.97-1.93-1.79-1.2-0.82-2.87-1.58-1.67-0.76-3.6-1.55-4.92-2.05-7.35-5.01-2.4-2.96-2.4-7.15 0-3.28 1.32-5.62 1.32-2.37 3.57-3.9 2.29-1.52 5.27-2.23 2.99-0.73 6.33-0.73 3.28 0 5.8 0.41 2.55 0.38 4.69 1.2l0 8.76q-1.05-0.73-2.31-1.29-1.23-0.56-2.55-0.91-1.32-0.38-2.64-0.56-1.29-0.18-2.46-0.18-1.61 0-2.93 0.32-1.32 0.29-2.23 0.85-0.91 0.56-1.41 1.35-0.5 0.76-0.5 1.73 0 1.05 0.56 1.9 0.56 0.82 1.58 1.58 1.03 0.73 2.49 1.46 1.46 0.7 3.31 1.46 2.52 1.05 4.51 2.26 2.02 1.17 3.46 2.67 1.44 1.49 2.2 3.43 0.76 1.9 0.76 4.45 0 3.52-1.35 5.92-1.32 2.37-3.6 3.87-2.29 1.46-5.33 2.11-3.02 0.64-6.39 0.64-3.46 0-6.59-0.59-3.11-0.59-5.39-1.76z" id="S" />
        </g>
        <g id="IGroup" count="3" transform="translate(4.2611697,0)" style="fill:#ccc;fill-opacity:0">
            <path d="m514.97 261.01-9.46 0 0-42.01 9.46 0 0 42.01z" id="I" />
        </g>
        <g id="GGroup" count="4" transform="translate(9.0564581,0)" style="fill:#ccc;fill-opacity:0">
            <path d="m584.77 258.18q-6.15 3.54-15.29 3.54-10.14 0-16-5.6-5.83-5.62-5.83-15.47 0-9.9 6.39-16.14 6.39-6.24 16.99-6.24 6.68 0 11.78 1.85l0 8.88q-4.86-2.81-11.89-2.81-5.89 0-9.61 3.84-3.69 3.81-3.69 10.2 0 6.47 3.31 10.02 3.34 3.54 8.99 3.54 3.4 0 5.39-0.97l0-8.2-8.41 0 0-7.56 17.87 0 0 21.12z" id="G" />
        </g>
        <g id="NGroup" count="5" transform="translate(20,0)" style="fill:#ccc;fill-opacity:0">
            <path d="m648.93 260.99-9.55 0-17.31-26.4q-1.52-2.31-2.11-3.49l-0.12 0q0.23 2.23 0.23 6.8l0 23.09-8.94 0 0-42.01 10.2 0 16.67 25.58q1.14 1.73 2.11 3.43l0.12 0q-0.23-1.46-0.23-5.77l0-23.23 8.94 0 0 42.01z" id="N" />
        </g>
    </g>
    <g id="PHPLayer">
        <g transform="translate(-5,-12)" id="LessThanGroup" count="0" style="fill:#ccc;fill-opacity:0">
            <path d="m343.98 254.16-27.36-12.48 0-4.75 27.36-13.1 0 6.97-19.51 8.35 0 0.18 19.51 7.85 0 6.97z" id="LessThan" />
        </g>
        <g transform="translate(-4.9061889,-12)" id="QuestionMarkOneGroup" count="1" style="fill:#ccc;fill-opacity:0">
            <path d="m385.34 248.3q-0.29-0.76-0.47-1.7-0.15-0.97-0.15-1.82 0-1.35 0.26-2.46 0.26-1.11 0.79-2.08 0.53-1 1.32-1.87 0.79-0.91 1.85-1.79 1.11-0.94 1.93-1.73 0.85-0.82 1.44-1.61 0.59-0.82 0.88-1.67 0.29-0.88 0.29-1.93 0-0.91-0.32-1.67-0.32-0.79-0.94-1.35-0.59-0.56-1.46-0.88-0.85-0.32-1.9-0.32-2.29 0-4.75 0.97-2.46 0.94-4.66 2.87l0-8.82q2.26-1.35 4.92-2.02 2.67-0.67 5.51-0.67 2.72 0 5.07 0.62 2.34 0.59 4.07 1.88 1.76 1.29 2.72 3.31 1 1.99 1 4.8 0 1.79-0.41 3.25-0.41 1.44-1.2 2.72-0.79 1.29-1.96 2.49-1.17 1.17-2.7 2.43-1.03 0.85-1.82 1.58-0.76 0.73-1.29 1.46-0.5 0.7-0.76 1.52-0.26 0.79-0.26 1.82 0 0.7 0.18 1.44 0.21 0.73 0.53 1.23l-7.71 0zm4.28 12.83q-2.34 0-3.9-1.41-1.55-1.46-1.55-3.46 0-2.05 1.55-3.43 1.55-1.38 3.9-1.38 2.31 0 3.84 1.38 1.52 1.35 1.52 3.43 0 2.11-1.49 3.49-1.52 1.38-3.87 1.38z" id="QuestionMarkOne" />
        </g>
        <g transform="translate(-5.5954281,-12)" id="POneGroup" count="2" style="fill:#ccc;fill-opacity:0">
            <path d="m446.8 245.49 0 14.47-9.46 0 0-42.01 14.82 0q15.88 0 15.88 13.39 0 6.33-4.57 10.25-4.54 3.9-12.16 3.9l-4.51 0zm0-20.27 0 13.1 3.72 0q7.56 0 7.56-6.62 0-6.47-7.56-6.47l-3.72 0z" id="P" />
        </g>
        <g transform="translate(-6.9549562,-12)" id="HGroup" count="3" style="fill:#ccc;fill-opacity:0">
            <path d="m533.12 259.45-9.49 0 0-17.11-17.4 0 0 17.11-9.46 0 0-42.01 9.46 0 0 16.76 17.4 0 0-16.76 9.49 0 0 42.01z" id="H" />
        </g>
        <g transform="translate(-5.4867557,1)" id="PTwoGroup" count="4" style="fill:#ccc;fill-opacity:0">
            <path d="m568.48 232.48 0 14.47-9.46 0 0-42.01 14.82 0q15.88 0 15.88 13.39 0 6.33-4.57 10.25-4.54 3.9-12.16 3.9l-4.51 0zm0-20.27 0 13.1 3.72 0q7.56 0 7.56-6.62 0-6.47-7.56-6.47l-3.72 0z" id="P" />
        </g>
        <g transform="translate(1.6790772,1)" id="QuestionMarkTwoGroup" count="5" style="fill:#ccc;fill-opacity:0">
            <path d="m622.35 235.3q-0.29-0.76-0.47-1.7-0.15-0.97-0.15-1.82 0-1.35 0.26-2.46 0.26-1.11 0.79-2.08 0.53-1 1.32-1.87 0.79-0.91 1.85-1.79 1.11-0.94 1.93-1.73 0.85-0.82 1.44-1.61 0.59-0.82 0.88-1.67 0.29-0.88 0.29-1.93 0-0.91-0.32-1.67-0.32-0.79-0.94-1.35-0.59-0.56-1.46-0.88-0.85-0.32-1.9-0.32-2.29 0-4.75 0.97-2.46 0.94-4.66 2.87l0-8.82q2.26-1.35 4.92-2.02 2.67-0.67 5.51-0.67 2.72 0 5.07 0.62 2.34 0.59 4.07 1.88 1.76 1.29 2.72 3.31 1 1.99 1 4.8 0 1.79-0.41 3.25-0.41 1.44-1.2 2.72-0.79 1.29-1.96 2.49-1.17 1.17-2.7 2.43-1.03 0.85-1.82 1.58-0.76 0.73-1.29 1.46-0.5 0.7-0.76 1.52-0.26 0.79-0.26 1.82 0 0.7 0.18 1.44 0.21 0.73 0.53 1.23l-7.71 0zm4.28 12.83q-2.34 0-3.9-1.41-1.55-1.46-1.55-3.46 0-2.05 1.55-3.43 1.55-1.38 3.9-1.38 2.31 0 3.84 1.38 1.52 1.35 1.52 3.43 0 2.11-1.49 3.49-1.52 1.38-3.87 1.38z" id="QuestionMarkTwo" />
        </g>
        <g transform="translate(-5,-12)" id="GreaterThanGroup" count="6" style="fill:#ccc;fill-opacity:0">
            <path d="m709.36 242.27-27.36 12.48 0-6.94 19.57-7.82 0-0.12-19.57-8.38 0-6.97 27.36 13.01 0 4.75z" id="GreaterThan" />
        </g>
    </g>
    <g id="HTMLLayer">
        <g transform="translate(-5,-12)" id="LessThanGroup" count="0" style="fill:#ccc;fill-opacity:0">
            <path d="m343.98 254.16-27.36-12.48 0-4.75 27.36-13.1 0 6.97-19.51 8.35 0 0.18 19.51 7.85 0 6.97z" id="LessThan" />
        </g>
        <g transform="translate(0,1)" id="HGroup" count="1" style="fill:#ccc;fill-opacity:0">
            <path d="m404.37 247.69-9.49 0 0-17.11-17.4 0 0 17.11-9.46 0 0-42.01 9.46 0 0 16.76 17.4 0 0-16.76 9.49 0 0 42.01z" id="H" />
        </g>
        <g transform="translate(0,1)" id="TGroup" count="2" style="fill:#ccc;fill-opacity:0">
            <path d="m463.79 213.66-11.98 0 0 34.31-9.49 0 0-34.31-11.92 0 0-7.71 33.4 0 0 7.71z" id="T" />
        </g>
        <g transform="translate(0,1)" id="MGroup" count="3" style="fill:#ccc;fill-opacity:0">
            <path d="m531.92 247.87-9.35 0 0-25.14q0-4.07 0.35-8.99l-0.23 0q-0.73 3.87-1.32 5.57l-9.84 28.56-7.73 0-10.02-28.27q-0.41-1.14-1.32-5.86l-0.26 0q0.38 6.21 0.38 10.9l0 23.23-8.53 0 0-42.01 13.86 0 8.58 24.9q1.03 2.99 1.49 6.01l0.18 0q0.79-3.49 1.67-6.06l8.58-24.84 13.51 0 0 42.01z" id="M" />
        </g>
        <g transform="translate(0,1)" id="LGroup" count="4" style="fill:#ccc;fill-opacity:0">
            <path d="m581.4 246.95-25.02 0 0-42.01 9.46 0 0 34.34 15.56 0 0 7.68z" id="L" />
        </g>
        <g transform="translate(-1.7935792,1)" id="BackSlashGroup" count="5" style="fill:#ccc;fill-opacity:0">
            <path d="m645.95 201.45-20.48 48.98-8.26 0 20.39-48.98 8.35 0z" id="BackSlash" />
        </g>
        <g transform="translate(-5,-12)" id="GreaterThanGroup" count="6" style="fill:#ccc;fill-opacity:0">
            <path d="m709.36 242.27-27.36 12.48 0-6.94 19.57-7.82 0-0.12-19.57-8.38 0-6.97 27.36 13.01 0 4.75z" id="GreaterThan" />
        </g>
    </g>
    <g id="DevelopLayer" transform="translate(5,-12.4)">
        <g id="DGroup" count="0" transform="translate(0,-0.2)" style="fill:#ccc;fill-opacity:0">
            <path d="m313.36 260.99 0-42.01 14.88 0q22.38 0 22.38 20.48 0 9.81-6.12 15.67-6.09 5.86-16.26 5.86l-14.88 0zm9.46-34.31 0 26.63 4.69 0q6.15 0 9.64-3.69 3.52-3.69 3.52-10.05 0-6.01-3.49-9.43-3.46-3.46-9.73-3.46l-4.63 0z" id="D" />
        </g>
        <g id="g33" count="1" transform="translate(7.0437318,-9.5367437e-7)" style="fill:#ccc;fill-opacity:0">
            <path d="m398.17 261.01-25.2 0 0-42.01 24.23 0 0 7.71-14.77 0 0 9.35 13.74 0 0 7.68-13.74 0 0 9.61 15.73 0 0 7.68z" id="path35" />
        </g>
        <g id="VGroup" count="2" transform="translate(8.3648991,-9.5367437e-7)" style="fill:#ccc;fill-opacity:0">
            <path d="m464.63 218.99-14.47 42.01-10.72 0-14.3-42.01 10.2 0 8.76 29.24q0.7 2.37 0.85 4.19l0.18 0q0.21-1.96 0.91-4.31l8.7-29.12 9.9 0z" id="V" />
        </g>
        <g id="g39" count="3" transform="translate(7.9695744,-9.5367437e-7)" style="fill:#ccc;fill-opacity:0">
            <path d="m518.5 261.01-25.2 0 0-42.01 24.23 0 0 7.71-14.77 0 0 9.35 13.74 0 0 7.68-13.74 0 0 9.61 15.73 0 0 7.68z" id="path41" />
        </g>
        <g id="LGroup" count="4" transform="translate(6.3098758,-9.5367437e-7)" style="fill:#ccc;fill-opacity:0">
            <path d="m580.7 261.01-25.02 0 0-42.01 9.46 0 0 34.34 15.56 0 0 7.68z" id="L" />
        </g>
        <g id="OGroup" count="5" transform="translate(8.2432256,-0.01464595)" style="fill:#ccc;fill-opacity:0">
            <path d="m626.7 261.74q-9.02 0-14.71-5.86-5.68-5.89-5.68-15.32 0-9.96 5.77-16.11 5.77-6.15 15.29-6.15 8.99 0 14.53 5.89 5.57 5.89 5.57 15.53 0 9.9-5.77 15.97-5.74 6.06-15 6.06zm0.41-35.3q-4.98 0-7.91 3.75-2.93 3.72-2.93 9.87 0 6.24 2.93 9.87 2.93 3.63 7.68 3.63 4.89 0 7.76-3.52 2.87-3.54 2.87-9.81 0-6.53-2.78-10.17-2.78-3.63-7.62-3.63z" id="O" />
        </g>
        <g id="PGroup" count="6" transform="translate(10.000001,-9.5367437e-7)" style="fill:#ccc;fill-opacity:0">
            <path d="m679.87 246.53 0 14.47-9.46 0 0-42.01 14.82 0q15.88 0 15.88 13.39 0 6.33-4.57 10.25-4.54 3.9-12.16 3.9l-4.51 0zm0-20.27 0 13.1 3.72 0q7.56 0 7.56-6.62 0-6.47-7.56-6.47l-3.72 0z" id="P" />
        </g>
    </g>
    <g id="CursorLayer">
        <g id="CursorGroup" style="fill:#ccc;fill-opacity:0">
            <path d="m313.55 248-4.92 0 0-42.01 4.92 0 0 42.01z" id="Cursor" />
        </g>
    </g>
    <g id="DotLayer">
        <rect id="LineTop" width="10" height="2" x="150" y="227" style="fill:#ccc;fill-opacity:0" />
        <rect id="LineBottom" width="10" height="2" x="410" y="227" style="fill:#ccc;fill-opacity:0" />
        <g id="DotsLayer"></g>
        <path d="m439 240a12 12 0 0 1-12 12 12 12 0 0 1-12-12 12 12 0 0 1 12-12 12 12 0 0 1 12 12z" class="Dots" id="Dot" style="fill:#ccc;fill-opacity:1;" />
        <path d="m439 240a12 12 0 0 1-12 12 12 12 0 0 1-12-12 12 12 0 0 1 12-12 12 12 0 0 1 12 12z" id="DotBlip" style="fill:url(#RadialGradient);filter:url(#Color);fill-opacity:1;opacity:0" />
    </g>
    <g id="TextLayer" transform="translate(0,-572.36)">
        <g style="fill:#ffffff;fill-opacity:0" id="GAWDS">
            <path d="m280.56 784.37q4.86 0 9.09 1.89 4.32 1.8 7.47 5.04 3.24 3.15 5.04 7.47 1.89 4.32 1.89 9.18 0 3.6-1.08 6.93-0.99 3.33-2.88 6.12-1.8 2.79-4.41 4.95-2.61 2.16-5.67 3.51 3.78 2.34 5.94 6.21 2.25 3.96 2.25 8.73 0 3.69-1.44 6.84-1.35 3.24-3.78 5.58-2.34 2.43-5.58 3.78-3.24 1.44-6.84 1.44l0-4.68q2.7 0 5.04-1.08 2.34-0.99 4.05-2.79 1.8-1.71 2.79-4.05 1.08-2.34 1.08-5.04 0-2.7-1.08-5.04-0.99-2.34-2.79-4.14-1.71-1.71-4.05-2.79-2.34-0.99-5.04-0.99-4.86 0-9.18-1.8-4.23-1.89-7.47-5.04-3.15-3.24-5.04-7.47-1.8-4.32-1.8-9.18 0-4.86 1.8-9.18 1.89-4.32 5.04-7.47 3.24-3.24 7.47-5.04 4.32-1.89 9.18-1.89zm0 4.77q-3.87 0-7.29 1.53-3.42 1.44-6.03 3.96-2.52 2.52-4.05 6.03-1.44 3.42-1.44 7.29 0 3.87 1.44 7.29 1.53 3.42 4.05 6.03 2.61 2.52 6.03 4.05 3.42 1.44 7.29 1.44 3.87 0 7.29-1.44 3.51-1.53 6.03-4.05 2.52-2.61 3.96-6.03 1.53-3.42 1.53-7.29 0-3.87-1.53-7.29-1.44-3.51-3.96-6.03-2.52-2.52-6.03-3.96-3.42-1.53-7.29-1.53zM351.9 784.1q4.86 0 9.18 1.89 4.32 1.8 7.47 5.04 3.24 3.15 5.04 7.47 1.89 4.32 1.89 9.18l0 22.5-4.77 0 0-8.37q-3.15 4.32-8.1 6.84-4.86 2.52-10.71 2.52-4.86 0-9.18-1.8-4.23-1.89-7.47-5.04-3.15-3.24-5.04-7.47-1.8-4.32-1.8-9.18 0-4.86 1.8-9.18 1.89-4.32 5.04-7.47 3.24-3.24 7.47-5.04 4.32-1.89 9.18-1.89zm0 4.77q-3.87 0-7.29 1.53-3.42 1.44-6.03 3.96-2.52 2.52-4.05 6.03-1.44 3.42-1.44 7.29 0 3.87 1.44 7.29 1.53 3.42 4.05 6.03 2.61 2.52 6.03 4.05 3.42 1.44 7.29 1.44 3.87 0 7.29-1.44 3.51-1.53 6.03-4.05 2.52-2.61 3.96-6.03 1.53-3.42 1.53-7.29 0-3.87-1.53-7.29-1.44-3.51-3.96-6.03-2.52-2.52-6.03-3.96-3.42-1.53-7.29-1.53zM421.05 831.26q-3.69 0-6.93-1.35-3.15-1.44-5.58-3.78-2.34-2.43-3.78-5.58-1.35-3.24-1.35-6.93l0-28.35 4.77 0 0 28.35q0 2.7 0.99 5.13 0.99 2.34 2.7 4.14 1.8 1.71 4.14 2.7 2.34 0.99 5.04 0.99 2.7 0 5.04-0.99 2.34-0.99 4.05-2.7 1.8-1.8 2.79-4.14 1.08-2.43 1.08-5.13l0-28.35 4.68 0 0 28.35q0 2.7 0.99 5.13 1.08 2.34 2.79 4.14 1.8 1.71 4.14 2.7 2.34 0.99 5.04 0.99 2.7 0 5.04-0.99 2.34-0.99 4.05-2.7 1.8-1.8 2.79-4.14 1.08-2.43 1.08-5.13l0-28.35 4.68 0 0 28.35q0 3.69-1.44 6.93-1.35 3.15-3.78 5.58-2.34 2.34-5.58 3.78-3.24 1.35-6.84 1.35-4.86 0-8.91-2.34-4.05-2.43-6.39-6.48-2.34 4.05-6.39 6.48-3.96 2.34-8.91 2.34zM518 784.1q5.85 0 10.71 2.61 4.86 2.52 8.1 6.84l0-30.87 4.68 0 0 45q0 4.86-1.89 9.18-1.8 4.23-5.04 7.47-3.15 3.15-7.47 5.04-4.23 1.8-9.09 1.8-4.86 0-9.18-1.8-4.23-1.89-7.47-5.04-3.15-3.24-5.04-7.47-1.8-4.32-1.8-9.18 0-4.86 1.8-9.18 1.89-4.32 5.04-7.47 3.24-3.24 7.47-5.04 4.32-1.89 9.18-1.89zm0 4.77q-3.87 0-7.29 1.53-3.42 1.44-6.03 3.96-2.52 2.52-4.05 6.03-1.44 3.42-1.44 7.29 0 3.87 1.44 7.29 1.53 3.42 4.05 6.03 2.61 2.52 6.03 4.05 3.42 1.44 7.29 1.44 3.87 0 7.29-1.44 3.42-1.53 5.94-4.05 2.61-2.61 4.05-6.03 1.53-3.42 1.53-7.29 0-3.87-1.53-7.29-1.44-3.51-4.05-6.03-2.52-2.52-5.94-3.96-3.42-1.53-7.29-1.53zM578.48 809.57q-2.34 0-4.5-0.81-2.07-0.9-3.69-2.34-1.53-1.53-2.52-3.51-0.9-2.07-0.99-4.41-0.18-1.26 0-2.7 0.09-2.34 0.99-4.32 0.99-2.07 2.52-3.51 1.62-1.53 3.69-2.34 2.16-0.9 4.5-0.9l16.92 0 0 4.68-16.92 0q-2.79 0-4.86 1.89-1.98 1.89-2.16 4.68-0.18 1.17 0 2.34 0.18 2.79 2.16 4.68 2.07 1.89 4.86 1.89l6.66 0 0.09 0q2.34 0 4.41 0.9 2.16 0.81 3.69 2.34 1.62 1.53 2.52 3.6 0.99 1.98 1.08 4.32l0 2.43 0 0.09 0 0.18q0 2.43-0.99 4.5-0.9 2.07-2.52 3.69-1.62 1.53-3.78 2.43-2.07 0.9-4.5 0.9l-17.37 0 0-4.68 17.37 0q2.61 0 4.59-1.62 1.98-1.71 2.43-4.32 0-0.27 0-0.54 0.09-0.36 0.09-0.63l0-1.89q-0.09-2.88-2.16-4.95-2.07-2.07-4.95-2.07l-6.66 0z" id="GAWDSText"/>
        </g>
    </g>
</svg>
